<?xml version="1.0" encoding="utf-8"?>
<!-- Generator: Adobe Illustrator 23.0.1, SVG Export Plug-In . SVG Version: 6.00 Build 0)  -->
<svg version="1.1" id="Layer_1" xmlns="http://www.w3.org/2000/svg" xmlns:xlink="http://www.w3.org/1999/xlink" x="0px" y="0px"
	 viewBox="0 0 900 221.4" style="enable-background:new 0 0 900 221.4;" xml:space="preserve">
<style type="text/css">
	.st0{fill:#FFFFFF;}
	.st1{fill:#4A4A4A;}
	.st2{fill:#4D4D4D;}
	.st3{fill:#3A3A3A;}
	.st4{fill:#4B4B4B;}
	.st5{fill:#4C4C4C;}
	.st6{fill:#4D4949;}
	.st7{fill:#00BCD5;}
	.st8{fill:#29C0D3;}
	.st9{fill:#29BFD2;}
	.st10{fill:#27C7DB;}
	.st11{fill:#27C4D9;}
	.st12{fill:#26C8DD;}
	.st13{fill:#523C39;}
	.st14{fill:#05BBD3;}
</style>
<title>black_logo_with_slogon</title>
<path class="st0" d="M900,132.3c-0.8,1.8-1.4,3.7-2.3,5.5c-5.5,11-14.5,16.6-26.8,16.6c-95.3,0-190.6,0-285.9-0.1
	c-9,0-16.3-4.4-21.8-11.5c-3.4-4.3-5.4-9.6-5.7-15.1c-0.1-2.3-0.3-4.7-0.3-7c0-30.1-0.1-60.3,0-90.5c0.1-14.8,8.4-25.8,23.2-29.7
	c0.7-0.2,1.6,0.4,2.1-0.5h293.1c0.9,0.5,1.9,0.8,2.9,0.9c6.1,1.5,11.5,4.9,15.5,9.8c2.7,3.5,4.7,7.5,6,11.8L900,132.3z M728.8,6.4
	H584.2c-0.8,0-1.7,0-2.5,0.2c-4.9,1.3-9.3,3.5-12.6,7.5c-3.1,3.8-5.3,8.1-5.3,13.1c-0.1,33.3-0.1,66.6,0,99.9
	c0,5.8,2.6,10.6,6.5,14.6c4.7,4.7,10.7,6.6,17.2,6.6c94.2,0,188.5,0,282.7,0c3.3,0.1,6.6-0.5,9.7-1.7c9.6-4,14.5-11.8,14.5-21.8
	c0.1-31.6,0-63.2,0-94.9c0.1-4.2-0.9-8.3-2.9-11.9c-4.2-7.4-10.4-11.6-19-11.6C824.7,6.4,776.8,6.4,728.8,6.4z"/>
<path class="st1" d="M29.4,221.4c-1.5-2.8-5-4.2-4.7-8.1c0.1-1.7,0.8-2.5,2.5-2.5c3.1,0,6.3,0,9.4,0c1.2,0,2.7-0.3,3.2,1.1
	c0.5,1.4,0.9,3.4-0.3,4.4c-1.8,1.5-2.4,3.7-4.2,5.2L29.4,221.4z"/>
<path class="st2" d="M0,185.1c3-2,6.3-0.9,9.4-0.9c0.6,0,1.1,0.8,1.1,1.6c0,0.7-0.4,1.4-1,1.7c-1.5,0.9-8.2,0.2-9.5-1L0,185.1z"/>
<path class="st3" d="M70.2,55.1c-2-0.3-4.4,0.4-6.8-0.4c-1-0.3-1.7-1.2-1.8-2.2c-1.5-8-5.5-13.3-14.6-14.8
	c-6.3-1.2-12.8,0.7-17.5,5.1c-3.7,3.4-4.5,7.6-4,12.4c0.8,7.2,6.4,9.6,11.8,11.8c7.8,3.2,16,5.5,24,8c8.2,2.4,15,8,19.1,15.5
	c1.4,2.8,2.3,5.9,2.5,9c0.3,2.7,0.4,5.4,0.4,8.2c-0.3,7.4-2.1,14.1-7.2,20c-5.5,6.4-11.9,11-20.2,12.4c-6.2,1-12.5,1.3-18.7,0.8
	c-6.5-0.4-12.7-2.9-17.7-7.1c-7.5-6-13-13.5-14.7-23.2c-0.2-1.3-0.2-2.6,0-3.9c0.2-2.2,1.9-3.3,5.1-2.6c2.6,0.5,5.1,0.3,7.7,0.4
	c3.2,0.1,4.2,0.6,4.6,3.6c1.1,9.1,6.8,13.6,15.1,15.8c6.1,1.7,12.5,1.3,18.4-1c5.4-2,8.5-6,10-11.5c2.1-6.9-0.5-14.3-6.4-18.4
	c-3.6-2.6-7.8-4-11.9-5.5c-7.4-2.7-15-4.8-22-8.3c-6.4-3.2-11.9-7.6-14.9-14.3c-2.1-4.8-2.8-10-2.1-15.2c0.5-3.9,0.9-7.8,2.6-11.3
	c4-8.4,10.9-13.3,19.6-15.7c6.5-1.8,13.2-1.7,20-1c7.4,0.7,14.2,4,19.3,9.4c4.6,4.6,6.9,10.5,8.4,16.7c0.3,1.1,0.6,2.1,0.8,3.2
	c0.6,2.7-0.6,4.3-3.3,4.3C73.9,55.1,72.2,55.1,70.2,55.1z"/>
<path class="st3" d="M469.1,81.1V25.3c0-3.1,0.1-3.2,3.3-3.2c3.7,0,7.3,0,11,0c2.6,0,3.2,0.6,3.2,3.2c0,11.1,0,22.2,0,33.3
	c0,0.7-0.5,1.6,0.5,2c0.8,0.2,1.7,0,2.3-0.6c8-6,17-6.3,26.4-4.5c10.9,2.1,18.3,8.9,23.7,18.3c2.1,3.8,2.8,7.9,3.2,12.2
	c0.6,7,0,14,0.5,21c0.7,10.2,0.1,20.5,0.4,30.7c0.1,2.3-1,2.9-3,2.9c-3.8,0-7.5,0-11.3,0c-2.7,0-3.3-0.6-3.3-3.4
	c0-13.9,0.2-27.7-0.1-41.6c-0.1-4.1-0.1-8.4-1.7-12.4c-2.6-6.8-7.4-10.4-14.5-11.6c-4.9-1-10,0-14.1,2.7c-4.7,2.9-7.8,8-8.2,13.5
	c-1.1,13.5-0.7,27.1-1,40.7c-0.1,3.2-0.4,6.4-0.3,9.5c0,1.9-1,2.5-2.5,2.5c-4.1,0.1-8.1,0.1-12.2,0c-1.9,0-2.5-1.1-2.4-3
	C469.1,118.8,469.1,99.9,469.1,81.1z"/>
<path class="st3" d="M230.6,97c0.1-3.5-0.4-7.5,0.6-11.5c1.4-5.1,4.1-9.5,7.3-13.7c4.7-6.1,10.8-11,17.8-14.2
	c6.1-2.7,12.8-3.6,19.3-2.6c3,0.4,6.1,0.2,9.2,0.9c5.5,1.4,10.3,4.2,14.7,7.6c5.3,4,9,9.2,12.1,14.9c2.8,5.3,4.4,11.1,4.7,17
	c0,0.7,0.2,1.3,0.2,2c0.7,13.3,0.5,26.6,0.5,39.8c0,2.7-0.4,3.2-3.1,3.2c-3.8,0-7.5,0-11.3,0c-2.6,0-3.1-0.5-3.1-3
	c0-1.5,0.1-2.9,0-4.4c0-0.9,0.6-1.9-0.8-2.5s-1.6,0.7-2.1,1.2c-3.9,3.8-8.6,6.7-13.9,8.4c-1.4,0.4-2.8,0.6-4.2,0.6
	c-5.6,0.1-11.2,0.6-16.8-0.8c-6-1.6-11.5-4.6-16.1-8.8c-6.1-5.2-10.8-11.8-13.7-19.3c-1.4-3.7-1.5-7.5-1.4-11.4
	C230.6,99.7,230.6,98.6,230.6,97z M273.5,124.5c13,0.9,25.6-11.2,25.6-24.9c0.1-17.7-11-27.8-25.1-28.3
	c-16.7-0.6-26.9,11.5-26.8,26.6S257.4,124.5,273.5,124.5z"/>
<path class="st3" d="M133.5,140.9c-6.4,0.7-12.9-0.6-18.5-3.7c-6.7-3.6-12.4-8.7-16.7-14.9c-3.1-4.5-5.9-9.1-6.6-14.7
	c-0.8-5.4-0.9-10.9-0.5-16.4c0.4-4.5,1.7-8.8,3.9-12.7c6.1-11.3,15-19.3,27.5-22.8c7-1.8,14.3-1.8,21.3-0.1
	c13.3,3,22.5,11.3,29,22.9c1.2,2.1,0.2,3.6-2.3,3.6c-4.5-0.1-9,0.3-13.4-0.4c-1.3-0.3-2.4-0.9-3.2-1.9c-3.5-3.8-8-6.6-13-8
	c-10-2.6-23.1,1.9-28.6,10.2c-2.6,4-4,8.7-4.1,13.5c-0.3,6.4,0.7,12.5,4.4,18c3.8,5.7,9.8,9.5,16.5,10.5c7.3,1.3,14,0.2,20.1-4.2
	c1-0.7,1.9-1.5,2.7-2.5c2.1-2.5,4.9-3.3,8-3.4c3.6-0.1,7.2,0,10.8,0c2.5,0,3.4,1.5,2.2,3.7c-6.3,11.3-15.4,19.3-27.9,22.7
	C141.3,141.3,137.4,141.5,133.5,140.9z"/>
<path class="st3" d="M377.2,97.3c-0.5-5.5,0.5-11,2.7-16.1c1.6-3.8,3.8-7.4,6.5-10.6C393,63,400.9,57.1,411,55.3
	c8.5-1.6,17.2-0.8,25.3,2.2c3.7,1.5,7.1,3.5,10.1,6c5.2,3.9,9.4,8.9,12.4,14.7c1.4,2.7,0.6,4-2.5,4c-4.3-0.1-8.5,0.4-12.7-0.5
	c-1.4-0.3-2.7-1-3.7-2.1c-4.3-4.4-9.2-7.9-15.8-8c-5.3-0.1-10.5-0.1-15.5,2.1c-6,2.7-10.2,6.9-12.4,13c-3.5,9.8-2.9,19.2,3.4,27.9
	c3.6,5,9,8.3,15.1,9.3c9,1.7,17.2-0.1,23.8-6.9c2.3-2.4,5-3,7.9-3.1c3.4-0.1,6.7-0.1,10.1,0c2.9,0,3.7,1.4,2.4,3.9
	c-4.3,8-10.5,14-18.3,18.7c-6,3.5-12.3,4.7-19.1,4.6c-5.3-0.1-10.7,0.2-15.8-1.8c-4.5-1.7-8.6-4.1-12.3-7.2
	c-6.7-5.9-12.3-12.6-15-21.3C377,106.5,377.1,102.1,377.2,97.3z"/>
<path class="st3" d="M335.4,40.9c0-4.1,0-8.3,0-12.4c0-2.6,0.6-3.3,3.1-3.3c3.8,0,7.5,0,11.3,0c2.6,0,3.1,0.5,3.1,3
	c0,8.3,0,16.7,0,25c0,1.9,0.6,2.4,2.4,2.3c4.1-0.1,8.3,0,12.4,0c2.8,0,3.2,0.5,3.2,3.1c0,3.3-0.1,6.6,0,9.9c0.1,2.8-0.4,3.6-3.7,3.6
	c-4,0-8,0.1-11.9,0c-1.9-0.1-2.4,0.6-2.3,2.4c0.1,4-0.3,8.1,0.1,12.1c0.5,5-0.1,10.1,0.5,15c0.4,3.3,0,6.6,1.2,9.8
	c2,5.7,5.8,9.4,11.5,11.2c0.7,0.2,1.5,0.2,2.2,0.5c1.2,0.5,2.1,1,2.1,2.7c-0.2,4.1,0.7,8.2,0.4,12.3c-0.1,1.9-0.9,2.4-2.9,2.2
	c-3.6-0.4-7.2-1.2-10.6-2.5c-6.6-2.3-12.1-7-15.5-13.1c-3.2-5.6-5.1-11.9-5.6-18.4c-0.9-10.5-0.9-21-0.8-31.5c0-2.2-0.6-3-2.8-2.8
	s-4.4,0-6.7,0c-1.9,0-3-0.9-3-2.9c0-3.6,0-7.2,0-10.8c0-2,1-2.9,2.9-2.9c2.3,0,4.6-0.1,6.9,0c2,0.1,2.7-0.4,2.6-2.5
	C335.3,49,335.4,45,335.4,40.9z"/>
<path class="st3" d="M182.8,126c0-3-0.2-6,0-9c0.5-6.7,0.1-13.4,0.5-20.1s0.3-13.4,2.7-19.8c2.6-7.3,7.8-13.3,14.5-17
	c5.1-2.9,10.9-4.5,16.9-4.5c2.7,0,3.1,0.4,3.1,3.2c0,3.3,0,6.6,0,9.9c0,2.5-0.9,3.4-3.3,3.5c-6.4,0.1-12.4,4.8-14.6,11.3
	c-0.8,2.8-1.3,5.7-1.4,8.6c-0.7,6.9,0.1,13.9-0.5,20.8c-0.7,8.2-0.1,16.3-0.4,24.5c-0.1,2.4-0.9,3.3-3.2,3.3h-11
	c-2.8,0-3.2-0.4-3.2-3.1L182.8,126z"/>
<path class="st0" d="M503.5,184.6c-0.3,6.7-3,13.1-7.7,18c-2.8,3.4-6.6,5.8-10.8,7c-5.8,1.5-11.8-2.9-12.8-8.4
	c-1.4-8,1.7-14.4,6.7-20.2c2.9-3.7,6.9-6.5,11.5-7.9c5.4-1.6,11,1.5,12.5,6.9c0,0.1,0.1,0.2,0.1,0.3
	C503.6,181.7,503.7,183.2,503.5,184.6z M498.1,184.5c0.3-5.6-3-8.4-8.7-5.9c-3,1.3-5.5,3.4-7.3,6.1c-3,4.2-4.9,8.8-4.7,14
	c0.2,4.5,3.9,7.9,8.8,5.4C494.1,200,496.9,192.7,498.1,184.5L498.1,184.5z"/>
<path class="st1" d="M414.5,189.4c2.7-2,5.1-3.5,8-4.1c3.1-0.6,4.3-0.2,5.8,2.5c0.6,1.1,1.1,0.4,1.6,0.1c1.8-1.3,3.8-2.3,5.9-2.9
	c4.7-1.2,7.6,1.2,7.2,6c-0.5,5.9-2.8,11.4-5.1,16.8c-0.4,1.3-1.7,2-3,1.6c-0.2-0.1-0.4-0.2-0.6-0.3c-1.6-0.8-1.2-2.2-0.6-3.4
	c2-3.9,3.4-8,4.4-12.3c0.3-1.4,1.1-3.2-0.4-4.3s-2.9,0.2-4.2,0.8c-6.1,3.1-8.4,8.7-9.3,15.1c-0.1,0.7-0.2,1.3-0.3,2
	c-0.3,1.4-1.2,2.4-2.8,2.1c-1.3-0.2-2.1-1.4-1.9-2.6c0-0.2,0.1-0.3,0.1-0.5c0.8-3,1.8-6,2.7-9c0.5-1.8,1.1-3.7,1.5-5.5
	s-0.5-2.6-2.2-1.9c-4.3,1.9-8,4.6-9.6,9.2c-1,2.7-1.6,5.4-2,8.2c-0.1,1.2-0.5,2.5-1.8,3c-1.8,0.7-3.4-0.9-2.9-3c1.3-5,2.8-10,4.1-15
	c0.5-1.8,0.9-3.7,1.2-5.6c0.3-1.9,1.3-2.8,3.1-2.5c2,0.3,2,1.8,1.7,3.4C415.1,187.8,414.9,188.4,414.5,189.4z"/>
<path class="st1" d="M32.2,208.5h-0.9c-6.5,0-6.5,0-8.7-6c-0.7-1.7-1.7-3.3-2.9-4.6c-6.3-7.2-5.6-18.1,1.6-24.4
	c6.7-5.9,16.9-5.7,23.4,0.4c6.7,6.4,7,16.8,0.6,24c-1.7,1.8-2.9,4.1-3.5,6.6c-0.6,2.9-2.1,4.1-5.2,4.1L32.2,208.5z M32.3,204.6
	L32.3,204.6c1.3,0.1,2.6,0.1,3.9,0.1c0.8,0.2,1.6-0.3,1.7-1.1c0-0.1,0-0.1,0-0.2c0.6-3.4,2.5-6,4.7-8.5c4.8-5.6,4.2-14.1-1.4-18.9
	c-5.6-4.8-14.1-4.2-18.9,1.4c-4.3,5-4.3,12.5,0,17.5c1.5,1.7,2.8,3.6,3.8,5.7c0.6,1.4,0.1,3.4,1.6,4
	C29.1,205.1,30.7,204.6,32.3,204.6L32.3,204.6z"/>
<path class="st1" d="M299.9,205.2c-1.4,0.8-2.6,1.5-3.8,2.2c-1.8,1.1-3.9,1.7-6.1,1.8c-3,0.1-5.6-2.3-5.6-5.3c0,0,0-0.1,0-0.1
	c-0.1-2.9,0.7-5.7,2.4-8c3.6-5.2,8-9.3,15-8.6c1.3,0.1,1.1-0.8,1.3-1.4c1-3.8,2-7.5,2.9-11.3c0.2-0.6,0.3-1.2,0.4-1.8
	c0.2-1.2,1.3-2.1,2.5-1.9c0.2,0,0.4,0.1,0.6,0.2c1.5,0.4,1.7,1.6,1.3,2.9c-1.4,5.5-2.7,11-4.1,16.5c-1.1,4.3-1.7,8.7-1.8,13.1
	c-0.1,1-0.2,2-0.4,2.9c-0.2,1.5-1.1,2-2.6,2s-1.7-0.9-1.8-2.1C300.1,205.9,300.1,205.5,299.9,205.2z M292,205.5
	c0.3-0.1,0.9-0.2,1.5-0.4c5.2-2,8.6-7.1,8.4-12.8c0-1-0.5-1.1-1.3-1.2c-4.8-0.1-11.6,6.1-11.9,10.9
	C288.5,204.3,289.6,205.6,292,205.5z"/>
<path class="st1" d="M760.7,205.4c-0.8-0.1-1.3,0.5-1.8,0.8c-1.4,0.7-2.7,1.6-4.1,2.1c-2.7,1.1-5.6,1.6-8-0.6s-2.1-5-1.3-7.7
	c1.8-6.1,6-10,11.7-12.4c1-0.6,2.2-0.8,3.3-0.6c2.7,0.7,3.3-0.8,3.7-2.9c0.7-3.5,1.7-7,2.6-10.5c0.6-2.5,1.5-3.3,3.3-2.8
	c2.2,0.7,1.5,2.3,1.2,3.8c-1.7,7.6-4.3,15-5.3,22.8c-0.3,2.8-0.4,5.6-0.7,8.5c-0.2,1.9-1.2,2.7-3.1,2.4S761.1,206.4,760.7,205.4z
	 M749.3,202.1c-0.1,2.9,1.8,4.1,4.6,3.1c5.3-2,8.8-7.2,8.6-12.9c0-0.8-0.4-1.1-1.1-1.1c-0.7,0.1-1.3,0.2-2,0.4
	C754.2,193,749.5,197.9,749.3,202.1z"/>
<path class="st1" d="M137.5,202.4c-2.1,1.5-3.7,3-5.7,3.8c-2.5,1.2-5.5,0.2-6.7-2.3c-0.6-1.1-0.7-2.4-0.3-3.6
	c1.4-5.7,4.9-9.7,9.7-12.8c1.1-0.7,2.4-1.1,3.7-1.1c5-0.4,6.6,1.3,5.7,6.2c-0.9,5.2-1.7,10.4-3.3,15.5c-1,3.5-3,6.8-5.6,9.3
	c-2,1.9-4.7,3-7.4,3.2c-0.9,0.1-2,0.2-2.4-0.8c-0.3-1,0-2,0.7-2.8c0.5-0.7,1.3-1.1,2.2-1.1c4-0.4,5.9-3.2,7.3-6.5
	C136.2,207.3,136.7,205,137.5,202.4z M139.7,191.4c-0.1-1.3-0.5-2.2-2.1-1.2c-3.5,2-6.4,4.9-8.3,8.5c-0.5,0.8-0.7,1.7-0.7,2.6
	c0.1,1,0.5,1.3,1.5,1.1C133.5,201.8,139.5,194.9,139.7,191.4L139.7,191.4z"/>
<path class="st1" d="M357.4,173.7c2.3,0,4.2,0.6,5.5,2.5c0.8,1,0.9,2.3,0.5,3.5c-0.2,1-1,1.8-2,2c-1.2,0.1-1.9-0.7-2.1-1.7
	c-0.5-2.2-1.9-2.1-3.5-1.5c-5.4,2.3-7.6,7-9,12.3c-0.3,1,0.4,1,1.1,0.9c1.5-0.1,3-0.4,4.5-0.5c1.2-0.1,2.5,0.1,2.4,1.7
	c0,1.4-0.5,2.5-2.2,2.7s-3.2,0.5-4.8,0.6c-1.5,0-2.8,1.2-2.9,2.7c0,0,0,0.1,0,0.1c-0.4,3.2-0.9,6.4-1.3,9.5c-0.2,1.6-0.8,3-2.7,2.7
	s-2.3-2-2-3.8c0.5-2.7,1-5.4,1.6-8.1c0.3-1.4,0.2-2.4-1.5-2.7c-0.9-0.1-1.6-0.9-1.5-1.8c0-0.1,0-0.1,0-0.2c0.2-1.1,0.8-2.1,1.9-2
	c2.4,0.1,2.7-1.4,3.1-3.1c1.1-4.6,2.6-8.9,6.4-12.2C351.3,175.2,354.2,173.9,357.4,173.7z"/>
<path class="st1" d="M385.5,210.1c-5.2,0-8.1-3-7.3-8.1c1.2-7.6,5.4-13.1,12.7-15.8c5.9-2.2,9.6,0.9,9.8,7.3
	C400.9,200.4,392.8,210.8,385.5,210.1z M386.3,205.8c0.1,0,0.4,0,0.7,0c4.8-0.7,10.1-8.4,9-13.1c-0.5-2.2-1.3-2.7-3.4-2
	c-0.3,0.1-0.6,0.2-0.9,0.2c-4.4,0.9-9.1,6.2-9.4,10.6C382.1,204.2,383.5,205.8,386.3,205.8L386.3,205.8z"/>
<path class="st1" d="M831.8,210.1c-5.3,0-7.8-2.6-7.7-7.6c0.2-6.4,6.3-14.5,12.4-16.3c0.4-0.1,0.9-0.3,1.3-0.4
	c2.8-1.3,5.2-0.7,7,1.8c1.7,2.2,2.3,5.1,1.7,7.8c-1.1,5.9-4.6,10.2-9.6,13.4C835.4,209.7,833.6,210.2,831.8,210.1z M832.1,205.8
	c0.2,0,0.5,0,0.7,0c6-0.8,10-9.2,9.3-13.1c-0.4-2.2-1.3-2.7-3.4-2c-0.4,0.1-0.8,0.2-1.1,0.3c-4.4,0.8-9.2,6.6-9.2,11
	C828.3,204.5,829.6,205.8,832.1,205.8L832.1,205.8z"/>
<path class="st1" d="M572.9,189.3c2.3-1.6,4.2-3.1,6.6-3.9c4.5-1.4,7.5,0.9,7.2,5.6c-0.3,2.3-0.8,4.5-1.7,6.6
	c-1.1,3.3-2.3,6.6-3.5,9.9c-0.2,0.7-0.5,1.3-0.9,1.8c-0.7,0.8-1.8,1-2.8,0.6c-1.1-0.3-0.9-1.3-0.8-2.1c0.7-3.1,1.7-6.2,3-9.1
	c1-2.1,1.7-4.3,2.1-6.5c0.3-2.6-0.8-3.6-3.2-2.5c-5.8,2.8-10.4,6.6-11.2,13.6c-0.2,1.3-0.5,2.5-0.8,3.8c0,1.1-0.9,2.1-2.1,2.1
	c-0.2,0-0.3,0-0.5-0.1c-1.7-0.2-1.9-1.5-1.6-2.8c0.4-2.2,1-4.5,1.6-6.7c1.2-4.3,3.1-8.5,4.6-12.7c0.7-1.8,1.7-2.8,3.6-2.1
	c2.1,0.8,0.9,2.2,0.4,3.4C573,188.7,573,189,572.9,189.3z"/>
<path class="st1" d="M626,210.1c-5.4,0-8.4-3.3-7.3-8.6c1.4-7.4,5.6-12.7,12.9-15.4c5.3-2,8.5,0.1,9.5,5.8
	C642.4,199.7,633.3,210.8,626,210.1z M635,189.7c-0.8,0.6-1.8,1.1-2.9,1.2c-4.2,0.8-8.9,6-9.3,10.2c-0.3,3.6,1.7,5.4,5.2,4.5
	C634.3,204.2,638.2,195.3,635,189.7L635,189.7z"/>
<path class="st1" d="M600.9,189.2c1.8-1.5,3.8-2.7,6-3.6c5-1.8,8.6,1,7.5,6.3c-1.1,5.8-3.7,11.1-5.5,16.7c-0.4,1.4-1.7,1.7-3,1.4
	c-1.5-0.4-1.1-1.6-1-2.6c0.6-3.6,2.2-6.8,3.5-10.2c0.7-1.6,1.2-3.3,1.5-5c0.3-2.6-0.8-3.6-3.2-2.5c-6.3,2.9-10.7,7.4-11.5,14.7
	c-0.1,0.9-0.3,1.8-0.5,2.7c0,1.2-1,2.1-2.2,2c-0.1,0-0.3,0-0.4,0c-1.7-0.2-1.8-1.5-1.6-2.8c0.6-3.4,1.5-6.7,2.7-9.9
	c1.2-3.4,2.5-6.7,3.8-10.1c0.3-1,1.2-1.7,2.2-1.7c0.8-0.1,1.5,0.2,2,0.8C602.3,186.8,600.9,187.7,600.9,189.2z"/>
<path class="st1" d="M171.4,188.9c1.2-0.8,2.3-1.6,3.5-2.2c1.1-0.6,2.3-1.1,3.6-1.5c4-0.9,6.5,1.3,6.4,5.4c-0.2,2.2-0.7,4.4-1.5,6.5
	c-1.2,3.5-2.5,7.1-3.7,10.6c-0.2,0.8-0.5,1.5-1.1,2c-0.8,0.6-1.8,0.7-2.6,0.3c-1-0.4-0.8-1.4-0.7-2.2c0.6-3.4,2-6.6,3.3-9.7
	c0.8-1.8,1.4-3.6,1.8-5.4c0.2-1,0.4-2.1-0.4-2.8c-1-0.9-2.1-0.4-3,0.1c-5.7,3-10.2,6.9-11,13.8c-0.1,1.1-0.4,2.3-0.6,3.4
	c-0.3,1.5-1.1,2.4-2.7,2.1s-1.8-1.6-1.5-2.8c0.6-3.3,1.5-6.6,2.6-9.7c1.2-3.4,2.6-6.7,3.8-10.1c0.3-1.1,1.3-1.8,2.4-1.8
	c0.8-0.1,1.6,0.3,2,0.9C172.4,186.8,171.2,187.7,171.4,188.9z"/>
<path class="st1" d="M107.2,188.9c1.1-0.7,2.2-1.4,3.3-2.1c1.6-1.1,3.6-1.7,5.6-1.7c2.7,0.1,4.2,1.6,4.5,4.3c0.2,1.5,0,2.9-0.4,4.3
	c-1.6,4.9-3.3,9.7-4.9,14.5c-0.1,0.4-0.3,0.7-0.5,1c-0.7,0.9-1.9,1.2-2.9,0.8c-1.2-0.4-1-1.4-0.8-2.3c0.6-3.4,2.1-6.5,3.3-9.8
	c0.6-1.6,1.2-3.3,1.7-5c0.3-1.1,0.7-2.4-0.3-3.2s-2.4-0.2-3.4,0.3c-5.6,2.9-9.8,6.9-10.5,13.6c-0.1,1.1-0.4,2.3-0.6,3.4
	c-0.3,1.5-1.1,2.3-2.7,2s-1.7-1.6-1.5-2.9c0.9-4.3,2.1-8.5,3.7-12.5c0.8-2.2,1.8-4.4,2.5-6.6c0.6-1.8,1.6-2.9,3.5-2.2
	c2.1,0.7,0.9,2.2,0.6,3.4C107,188.5,107.1,188.6,107.2,188.9z"/>
<path class="st1" d="M705.3,188.2c3-0.6,5.6-1.2,8.3-1.6c1.2-0.2,2.9-0.7,3.3,1.1s-1,2.6-2.5,3c-2.9,0.7-5.8,1.3-8.8,1.8
	c-1,0-1.9,0.7-2,1.7c-0.7,2.4-1.1,4.8-1.3,7.2c-0.2,3.3,1.9,4.6,4.9,3c2.4-1.3,4-3.5,5.7-5.6c0.6-0.8,1-2.3,2.4-1.5s0.3,2-0.1,2.9
	c-1.3,2.9-2.7,5.8-5.6,7.6c-2.6,1.6-5.3,2.1-8,0.7s-3.5-3.9-3.5-6.8c0-2.4,0.4-4.7,1.1-7c0.3-1,0.4-1.7-1-1.9
	c-1.2-0.2-2.5-0.8-2.3-2.4c0.2-1.8,1.6-1.8,3-1.6c1.8,0.2,2.7-0.4,3-2.2c0.3-2.3,1.4-4.5,1.3-7c-0.1-1.2,0.4-2.4,1.9-2.4
	s2.2,0.9,2.4,2.3c0.3,2.1-0.7,4-1.1,6C705.9,186.3,705.6,187,705.3,188.2z"/>
<path class="st1" d="M808.6,188.1c2.6-0.5,4.9-1,7.2-1.5c0.7-0.2,1.5-0.3,2.3-0.3c0.8,0,1.8,0,2,1.1c0.2,0.8-0.1,1.7-0.8,2.3
	c-0.6,0.5-1.4,0.9-2.3,1c-2.8,0.6-5.7,1.2-8.5,1.7c-0.8,0-1.4,0.6-1.6,1.3c-0.8,2.5-1.2,5-1.5,7.6c-0.1,3.2,1.8,4.5,4.8,3
	c2.6-1.3,4.3-3.6,6-5.9c0.6-0.7,1-2,2.3-1.2c1.1,0.7,0.3,1.7,0,2.5c-1.4,3-2.8,6.1-5.8,8c-2.6,1.6-5.3,2.1-8,0.7s-3.5-3.9-3.5-6.7
	c0-2.4,0.4-4.7,1-7c0.2-0.9,0.5-1.7-1-1.9c-1.2-0.2-2.5-0.8-2.3-2.4c0.2-1.8,1.6-1.8,3-1.6c2,0.3,2.7-0.6,3-2.5
	c0.3-2.2,1.2-4.2,1.1-6.5c-0.1-1.3,0.4-2.7,2.1-2.6s2.3,1.4,2.3,2.9C810.3,182.7,809.1,185.1,808.6,188.1z"/>
<path class="st1" d="M729.3,209.9c-6.2,0-8.4-2.3-8.2-7.7c0-0.5-0.2-1-0.5-1.4c-0.5-0.8-0.4-1.9,0.2-2.5c2.3-2,3.5-4.8,5.6-6.9
	c2.4-2.3,5-4.1,8.4-4.1c2.2,0,4.2,0.5,5.1,2.8c0.9,2.2,0.4,4.7-1.4,6.3c-2.7,2.9-6.5,3.6-10.2,4.3c-1.6,0.3-3.3,0-3.2,2.5
	s1.8,2.8,3.6,3c2.6,0.2,4.9-0.8,7.2-2.1c0.5-0.3,1-0.7,1.6-0.9c1-0.4,2.2-1.7,3.1-0.5s-0.1,2.6-1.1,3.5
	C736.7,208.5,733.1,209.9,729.3,209.9z M727.4,196.7c2.8-0.4,5.2-0.7,7.1-2.2c0.8-0.6,1.7-1.4,1.1-2.5s-1.7-1-2.8-0.6
	C730.4,192.3,728.9,194.1,727.4,196.7z"/>
<path class="st1" d="M221.9,209.9c-4.3,0-8.8-2-7.7-7.7c0-0.5-0.1-1.1-0.4-1.5c-0.5-0.8-0.4-1.9,0.3-2.6c2.5-2.2,3.7-5.4,6.3-7.5
	c2.3-1.9,4.7-3.4,7.8-3.4c2.1,0,4.1,0.5,5,2.6c0.9,2.1,0.6,4.5-1,6.2c-1.5,1.6-3.4,2.8-5.6,3.4c-1.8,0.6-3.7,1.1-5.6,1.2
	c-1.4,0.1-2.4,0.4-2.5,2c-0.2,1.3,0.6,2.6,1.9,3c1.8,0.6,3.8,0.5,5.6-0.2c1.9-0.8,3.8-1.7,5.5-2.8c0.8-0.4,1.7-1.1,2.5-0.2
	s0.1,1.9-0.4,2.7c-1.4,1.6-3.2,2.8-5.3,3.5C226.2,209.5,224,209.9,221.9,209.9z M220.5,196.6c2.7-0.2,5.1-0.6,7.1-2.2
	c0.8-0.6,1.6-1.5,1-2.5s-1.7-0.9-2.7-0.5C223.6,192.4,221.6,194.3,220.5,196.6z"/>
<path class="st1" d="M197.1,209.9c-4.5,0-8.8-2.1-7.7-7.7c0.1-0.5-0.1-1.1-0.4-1.5c-0.5-0.8-0.4-1.9,0.3-2.6
	c2.5-2.2,3.7-5.4,6.3-7.5c2.3-1.9,4.7-3.4,7.8-3.4c2.1,0,4.1,0.5,5,2.6c0.9,2.1,0.5,4.5-1,6.2c-1.3,1.5-3,2.6-4.9,3.2
	c-2,0.8-4.1,1.3-6.2,1.5c-1.4,0.1-2.4,0.4-2.5,2c-0.2,1.4,0.7,2.8,2.1,3.1c1.9,0.5,3.8,0.4,5.6-0.3c1.8-0.8,3.6-1.7,5.3-2.7
	c0.8-0.4,1.7-1.1,2.5-0.3s0.2,1.9-0.4,2.7c-1.5,1.8-3.5,3-5.7,3.6C201.1,209.6,199.1,209.9,197.1,209.9z M195.7,196.6
	c2.2,0,4.4-0.6,6.4-1.7c1.1-0.7,2.5-1.5,1.6-3s-2.4-0.7-3.5-0.1C198.3,192.9,196.7,194.6,195.7,196.6L195.7,196.6z"/>
<path class="st1" d="M80.3,209.9c-5.6,0-7.6-2-7.7-7.7c0-0.5-0.2-1-0.4-1.5c-0.5-0.8-0.4-1.9,0.3-2.6c2.5-2.2,3.7-5.4,6.3-7.5
	c2.3-1.9,4.7-3.4,7.8-3.4c2.1,0,4.1,0.5,5,2.6c0.9,2.1,0.5,4.6-1.1,6.3c-1.7,1.9-4,3.1-6.5,3.7c-1.5,0.4-3.1,0.8-4.7,1
	c-1.4,0.1-2.3,0.4-2.4,2c-0.2,1.3,0.6,2.6,1.9,3c1.8,0.6,3.8,0.5,5.6-0.2c1.9-0.8,3.8-1.7,5.5-2.8c0.8-0.4,1.7-1.1,2.5-0.2
	s0.1,1.9-0.5,2.7c-1.5,1.7-3.4,2.9-5.5,3.5C84.5,209.6,82.4,209.9,80.3,209.9z M79.1,196.6c1.9,0,3.8-0.4,5.6-1.3
	c1.4-0.7,3.4-1.5,2.4-3.4c-1-1.7-2.8-0.6-4,0.2C81.3,193.2,79.9,194.8,79.1,196.6z"/>
<path class="st1" d="M268.3,209.9c-1.6,0.1-3.2-0.2-4.7-0.9c-1.9-0.7-3.2-2.6-3.3-4.6c-0.1-1.5,0.5-3-0.6-4.4
	c-0.3-0.7-0.1-1.4,0.5-1.9c2.5-2,3.6-5.1,6-7.2s4.6-3.6,7.7-3.7c2.9-0.1,4.7,0.8,5.5,2.8c0.8,2.3,0.2,4.9-1.6,6.5
	c-2.8,2.7-6.4,3.5-10,4.1c-1.6,0.3-3.3,0.1-3.2,2.5s1.7,2.7,3.4,3c1.8,0.2,3.7-0.1,5.3-1c1.4-0.7,2.8-1.6,4.2-2.3
	c0.8-0.4,1.7-1.2,2.5-0.2s0.2,1.9-0.4,2.7c-0.5,0.6-1.1,1.1-1.7,1.5C275.2,208.9,271.8,209.9,268.3,209.9z M266.7,196.6
	c2.8-0.2,5.2-0.6,7.2-2.2c0.8-0.6,1.6-1.4,1-2.5s-1.7-0.9-2.7-0.5C269.8,192.3,268.2,194.1,266.7,196.6z"/>
<path class="st1" d="M681.9,204c-1.6,1.1-3.1,2.2-4.7,3.3s-3.5,1.5-5.4,0.3c-1.9-1.1-3-3.3-2.5-5.5c0.9-6.1,4.4-11.4,9.6-14.7
	c3.1-2,6.7-1,10.1-0.9c1.4,0.1,1.6,1.7,1.3,3c-1.5,5.8-3.3,11.6-4.1,17.6c-0.2,1.6-1.4,2.3-3,2c-1.9-0.3-1.4-1.6-1.3-2.8
	C681.9,205.6,682.3,204.9,681.9,204z M685.4,191.2c0.3-1.9-1.1-1.6-2.3-1.3c-4.5,1.1-9.4,7.1-9.7,11.8c-0.2,2.4,0.7,3,2.8,1.9
	c3.2-1.8,5.9-4.4,7.8-7.6C684.9,194.5,685.4,192.9,685.4,191.2L685.4,191.2z"/>
<path class="st0" d="M885.8,178.5c-2.1,0.7-3.8,1.2-5.5,1.7c-1.3,0.4-3,1-3.6-0.5s0.2-3,1.9-3.8c3.8-1.5,7.7-2.5,11.6-3.1
	c1.8-0.3,2.5,1.3,1.6,3.3c-1.5,3.4-3.3,6.8-4.6,10.2c-2.5,6.6-5.2,13.2-6.1,20.3c0,1.3-0.8,2.5-2,3c-2,0.7-3.2,0-3.4-2
	c0-2,0.3-3.9,1-5.7c2.1-7.3,4.8-14.4,8-21.3C884.9,179.9,885.3,179.4,885.8,178.5z"/>
<path class="st1" d="M654.1,203.3c3.7-5.3,7.5-9.9,9.9-15.4c1.1-2.6,2.7-3.6,4.1-3s1.6,3,0.1,5.1c-2.3,3.5-4.8,6.9-7.2,10.4
	l-5.6,8.1c-0.7,1-1.5,1.8-2.8,1.6s-1.7-1.3-2-2.5c-1.2-5.7-2.3-11.4-3.5-17.1c-0.3-1.2-0.3-2.4,0.1-3.6c0.3-0.9,0.8-1.7,1.9-1.8
	c1-0.1,2,0.5,2.3,1.5c0.3,0.9,0.5,1.8,0.6,2.7C652.4,194,653.1,198.7,654.1,203.3z"/>
<path class="st1" d="M246.5,190.4c1.3-1.4,2.8-2.6,4.5-3.5c2.8-1.3,6.3-0.2,7.6,2.2c0.8,1.1,0.6,2.7-0.5,3.5c-0.9,0.7-2.3,0.6-3-0.4
	c-0.1-0.1-0.1-0.2-0.2-0.3c-1.3-2-2.7-1.4-4.1-0.5c-2.7,1.8-5,4-5.7,7.4c-0.6,2.9-1.8,5.7-1.7,8.7c0.2,1.1-0.5,2.1-1.6,2.3
	c-0.3,0.1-0.6,0-0.9,0c-1.6-0.2-2.1-1.5-1.8-2.9c0.9-4.6,1.9-9.3,2.8-13.9c0.3-1.6,0.4-3.2,0.6-4.8c0.2-1.2,0.3-2.6,2-2.5
	s1.9,1.3,2,2.6C246.5,188.8,246.5,189.4,246.5,190.4z"/>
<path class="st1" d="M364.8,190.2c1.6-1.4,2.8-2.7,4.5-3.4c2.8-1.2,6.1-0.2,7.5,2.2c0.7,1.3,0.7,2.6-0.5,3.5
	c-0.9,0.8-2.3,0.6-3.1-0.3c-0.1-0.1-0.2-0.3-0.3-0.5c-1-1.6-2.3-1.4-3.5-0.6c-2.8,1.8-5.3,3.9-6,7.4c-0.7,3-1.9,5.8-1.9,9
	c0.2,1.1-0.6,2.2-1.7,2.4c-0.2,0-0.5,0-0.7,0c-1.5-0.2-2-1.4-1.8-2.7c0.6-3.6,1.4-7.2,2.1-10.8c0.6-2.5,1-4.9,1.2-7.5
	c0.1-1.4,0-3.3,2.1-3.1c1.9,0.1,2,1.8,2,3.3C364.8,189.3,364.8,189.6,364.8,190.2z"/>
<path class="st4" d="M147.9,207.5c0.5-1.8,1-4,1.6-6.2c1-3.8,2.1-7.7,3-11.5c0.4-1.6,1.3-2.4,2.9-2.3c1.2,0.1,2.1,0.7,1.7,2.1
	c-1.7,6.6-3.5,13.1-5.2,19.7c-0.3,1-0.9,1.7-2,1.4S147.8,209.4,147.9,207.5z"/>
<path class="st4" d="M549.9,208c0.3-1.3,0.7-2.8,1-4.1c1.2-4.6,2.5-9.1,3.7-13.7c0.3-1.1,0.7-2.2,2-2.5c1.8-0.5,3,0.7,2.5,2.5
	c-1.7,6.3-3.3,12.5-5,18.8c-0.3,1.1-0.7,2.2-2.1,1.9C550.8,210.4,549.9,209.3,549.9,208z"/>
<path class="st4" d="M514.6,206.8c-0.6,3.4-2.5,6.5-5.2,8.6c-0.6,0.7-1.7,0.8-2.4,0.2c-0.1-0.1-0.2-0.2-0.2-0.2
	c-0.9-1.1-0.1-1.8,0.7-2.5s1.3-1.1,1.9-1.7s1.1-1.3-0.3-2c-1.7-0.8-2-2.4-1.3-4.1c0.8-1.8,2.6-2.9,4.6-2.8
	C513.9,202.5,514.7,203.8,514.6,206.8z"/>
<path class="st5" d="M49.5,170.9c-1.8-0.1-2.7-1.7-1.6-2.9c1.6-1.8,3.2-3.4,5-5c0.7-0.7,1.7-0.6,2.4,0c0,0,0.1,0.1,0.1,0.1
	c0.7,0.6,1,1.5,0.4,2.2c-1.7,1.9-3.5,3.6-5.3,5.4C50.1,170.9,49.6,170.9,49.5,170.9z"/>
<path class="st4" d="M17.5,169c0,1-0.8,1.9-1.8,1.9c-0.4,0-0.8-0.1-1.2-0.4c-1.8-1.5-3.4-3.2-5.1-4.9c-0.7-0.6-0.7-1.7,0-2.4
	c0,0,0.1-0.1,0.1-0.1c0.5-0.7,1.5-0.9,2.2-0.4c0,0,0.1,0,0.1,0.1c1.9,1.7,3.7,3.6,5.5,5.5C17.5,168.5,17.5,168.8,17.5,169z"/>
<path class="st4" d="M55.9,207.2c0.1,1-0.7,1.9-1.8,2c-0.4,0-0.9-0.1-1.2-0.4c-1.8-1.6-3.5-3.3-5.1-5.1c-0.7-0.7-0.4-1.6,0.2-2.3
	c0.5-0.7,1.5-0.9,2.2-0.4c0,0,0,0,0,0c2,1.6,3.8,3.5,5.4,5.5C55.8,206.7,55.8,207,55.9,207.2z"/>
<path class="st2" d="M59.7,184.1c1.1,0,2.1,0,3.2,0c0.9-0.1,1.8,0.6,1.9,1.5c0,0,0,0.1,0,0.1c0.2,0.9-0.4,1.9-1.4,2
	c-0.1,0-0.2,0-0.3,0c-2.3,0.1-4.7,0.1-7.1,0c-0.9,0-1.7-0.8-1.7-1.7c0,0,0-0.1,0-0.1c0-1,0.7-1.8,1.7-1.8c0.1,0,0.2,0,0.2,0
	C57.4,184.1,58.5,184.1,59.7,184.1z"/>
<path class="st2" d="M34.4,158.8c0,1.1,0,2.1,0,3.2c0.1,1-0.7,1.9-1.7,1.9c-0.1,0-0.1,0-0.2,0c-0.9,0.1-1.8-0.6-1.9-1.5
	c0-0.1,0-0.3,0-0.4c0-2.2,0-4.4,0-6.6c-0.1-1,0.7-1.8,1.7-1.9c0.1,0,0.2,0,0.2,0c1,0,1.8,0.9,1.8,1.9c0,0,0,0.1,0,0.1
	C34.4,156.7,34.4,157.8,34.4,158.8z"/>
<path class="st4" d="M17.5,202.6c0,0.5-0.2,1.1-0.6,1.4c-1.5,1.5-3,3.1-4.5,4.5c-0.6,0.8-1.7,0.9-2.5,0.2c-0.1,0-0.1-0.1-0.2-0.1
	c-0.8-0.6-0.9-1.8-0.3-2.5c0.1-0.1,0.2-0.2,0.3-0.3c1.4-1.5,2.9-2.9,4.4-4.4c0.5-0.7,1.5-0.9,2.3-0.5
	C17,201.3,17.4,201.9,17.5,202.6z"/>
<path class="st5" d="M562.8,178.3c-0.1,2.4-2,4.2-3.8,4c-1.2,0-2.1-1-2.1-2.1c0-0.1,0-0.1,0-0.2c0-1.9,1.8-4,3.3-3.7
	S562.9,177.3,562.8,178.3z"/>
<path class="st2" d="M156.7,182.3c-1.1-0.1-1.9-1-1.9-2.1c-0.2-1.8,1.5-4,3.1-3.9c1.4,0,2.6,1.1,2.7,2.5
	C160.8,180.5,158.9,182.3,156.7,182.3z"/>
<path class="st3" d="M717.1,98.8H685c-2.2,0-2.9,0.7-2.3,2.8c2.4,8.2,9.7,16.1,19.6,17.5c7.9,1.1,15.1-0.1,21.6-4.7
	c3.6-2.6,8-3.8,12.4-3.6c3,0.1,6,0,9,0c1.1,0,2,0.1,2.5,1.1c0.4,1,0.2,2.2-0.5,3c-2.2,3.1-4.6,5.9-7.4,8.4c-3.6,3.4-7.6,6.4-11.8,9
	c-4.2,2.6-9,4-13.9,4.2c-3.8,0.2-7.7,0-11.5,0c-6.6,0-12.4-2.5-17.8-6c-7.5-4.9-13.8-11-17.6-19.3c-1.9-4.3-3.1-8.9-3.5-13.5
	c-0.3-2.6-0.4-5.1-0.4-7.7c0.1-9.9,3.7-19.5,10.3-27c4.4-5.2,9.9-9.5,15.9-12.6c4.1-2,8.6-3.1,13.1-3.3c7.2-0.5,14.5-0.2,21.3,2.7
	c4.6,1.8,9,4.4,12.8,7.6c6.8,5.7,11.2,12.9,13.9,21.2c2,6,1.7,12.2,1.6,18.4c0,1.9-1.6,1.9-3,1.9c-5.8,0-11.6,0-17.5,0L717.1,98.8z
	 M682.5,83.3c6.3,0.3,12.2,0.7,18.1,0.8c7.4,0.1,14.8,0,22.3,0c2.5,0,5,0,7.6,0s3-0.6,2.1-3.1c-1.5-4.3-4.4-7.5-7.7-10.5
	c-5.8-5.3-12.7-7.6-20.3-6.5C693.5,65.6,686.3,72.3,682.5,83.3z"/>
<path class="st3" d="M639,110.3c0-6.8,0.1-13.6,0-20.4c-0.1-4.9-0.2-9.8-2.3-14.3c-3.2-6.9-7.2-10.2-14.8-11.3
	c-3.7-0.6-7.5-0.3-11,1c-6.6,2.5-10.4,7.5-11.7,14.1c-1.5,7.9-0.7,15.9-1.1,23.9c-0.5,10-0.2,20-0.4,30c0.2,1.4-0.8,2.6-2.2,2.8
	c-0.2,0-0.4,0-0.6,0H582c-1.5,0-2.2-0.7-2.2-2.2c0-14.2-0.2-28.3,0.1-42.5c0.2-7.1,0.8-14.4,3.2-21.3c1.8-5.7,5.3-10.8,9.8-14.6
	c3.6-3,7.7-5.4,12-7.2c2.2-0.8,4.6-1.3,7-1.3c7.5-0.3,15.1-0.2,22.4,2.3c7.5,2.6,13,7.9,17.2,14.4c2.8,4.4,3.9,9.3,4.5,14.3
	c1.9,17.4,0.6,34.9,0.9,52.4c0.1,6.2,0.5,5.7-5.6,5.7c-3.1,0-6.1,0-9.2,0c-2.6,0-3.1-0.5-3.1-3L639,110.3z"/>
<path class="st3" d="M791.3,136.9c-6.3,0.3-12.5-1-18.2-3.8c-8.5-4-15.9-11.8-16.1-22c0-1.9,0.7-2.8,2.7-2.7c3.2,0.1,6.4,0,9.7,0
	c2.4-0.2,4.6,1.2,5.5,3.5c2.5,5.7,7.2,7.7,13,8.5c4.5,0.6,9,0.1,13.2-1.4c4-1.5,6.6-5.3,6.5-9.5c0-4.2-2-6.8-6.4-8.4
	c-8.1-3-16.5-4.9-24.7-7.3c-7.6-2.3-14.3-5.8-16.8-14.1c-3-9.8-1-18.3,6.6-25.1c4.5-4,10.1-6,15.9-7.1c9.8-1.7,19.4-0.8,28.2,4.1
	c6.6,3.7,10.3,9.7,12.3,16.8c0.9,3.2-0.1,4.5-3.3,4.7c-3.8,0.4-7.6,0.2-11.3-0.5c-1.4-0.4-2.6-1.4-3.2-2.7
	c-2.9-4.9-7.5-6.6-12.8-6.9c-4.3-0.2-8.4,0.3-12,2.8s-5,6.9-2.7,10.4c1.4,2.2,4,3.1,6.3,3.8c7.7,2.4,15.5,4.5,23.2,7
	c6.7,2.2,12.5,5.8,16.3,12c0.9,1.5,1.5,3.2,1.7,5c0.7,5.6,1,11.3-1.1,16.6c-1.9,4.9-5.8,8.2-10.1,10.9
	C807.2,135.6,799.8,137.1,791.3,136.9z"/>
<path class="st3" d="M840.7,32.7c0-4.4,0-8.7,0-13.1c0-1.9,0.7-2.6,2.6-2.6c4.1,0.1,8.3,0.1,12.4,0c2.5-0.1,3.5,0.3,3.4,3.6
	c0,8.4,0.1,16.7-0.1,25c0,2.2,0.7,2.8,2.7,2.7c4.2-0.1,8.4-0.1,12.6,0c2.6,0,3,0.5,3,3c0,3.8-0.1,7.5,0,11.3c0,1.9-0.7,2.8-2.7,2.7
	c-4.5-0.1-9,0-13.5,0c-2,0-2.9,0.8-2.6,2.7c0.8,7.1,0,14.2,0.6,21.3c0.4,5.3,0.1,10.7,1.2,16c1.2,5.8,6.3,11.5,12.3,12.9
	c0.9,0.1,1.8,0.3,2.6,0.6c0.8,0.3,1.6,0.6,1.7,1.8c0.3,4.6,0.5,9.1,0.5,13.7c0,1.8-0.9,2.5-2.6,2.3c-8.9-1.1-17.1-3.6-23.4-10.5
	c-4.7-5.2-7.4-11.4-9-18.2c-0.8-4.1-1.3-8.3-1.4-12.5c-0.7-9.3-0.5-18.6-0.4-28c0-1.8-1-2-2.3-2c-2.7,0-5.4-0.1-8,0
	c-1.2,0.2-2.3-0.5-2.5-1.7c0-0.2-0.1-0.5,0-0.7c-0.1-4-0.1-8.1,0-12.2c-0.1-1.3,1-2.4,2.3-2.5c0.1,0,0.2,0,0.4,0
	c2.5,0,4.9-0.2,7.3,0s3-0.7,2.9-3C840.6,41.1,840.7,36.9,840.7,32.7z"/>
<path class="st6" d="M31.5,194.3c0.5,1,0.9,1,1.2,0.9c2.2-0.7,2.7,1,3.4,2.4c0.4,0.7,0.2,1.6-0.5,2.1c-0.5,0.5-1.3,0.6-1.9,0.2
	c-0.7-0.3-1-1-0.8-1.7c0.5-1.3-0.3-1.3-1.2-1.2c-1.2,0.1-2.2,0-1.9-1.6c0.1-0.7-0.2-1.2-1-1.1c-2.4,0.4-2.9-0.7-2.6-2.8
	c0.1-0.4,0-0.8-0.8-0.8c0.1,0.5,0.1,1.1,0.1,1.6c0,0.9-0.7,1.6-1.6,1.6c-0.2,0-0.4,0-0.6-0.1c-0.8-0.1-1.3-0.8-1.2-1.6
	c0-0.2,0.1-0.4,0.2-0.6c0.7-1.2,0.6-3.2,3-2.8c1,0.2,0.7-1,0.7-1.5s0-1.2-0.9-1.2s-1.7-0.2-2.4,0.4c-0.6,0.6-1.6,0.6-2.3,0
	c-0.1-0.1-0.1-0.1-0.2-0.2c-0.5-0.5-0.5-1.3-0.1-1.9c0.5-0.8,1.6-1,2.4-0.6c1.4,0.5,3,1.6,3.6-1c0.2-0.6,1.1-0.4,1.7-0.4
	c1.5,0.1,2-0.4,1.4-1.9c-0.3,0.1-0.6,0.1-0.8,0.2c-0.8,0.5-1.8,0.2-2.3-0.6c0,0-0.1-0.1-0.1-0.2c-0.3-0.6-0.2-1.4,0.4-1.9
	c0.8-0.7,1.5-0.5,2.5-0.1c1.5,0.7,2.7,1.3,2.3,3.3c-0.3,1.4,0.9,1,1.7,1.1c1.1,0.2,1.3-0.3,1.3-1.3c0-0.7-0.5-1.1-0.6-1.7
	c-0.3-0.7,0-1.6,0.7-2c0.7-0.4,1.5-0.4,2.1,0.2c0.6,0.6,0.6,1.5,0.2,2.1c-0.8,1.2-1.6,2.3,0.7,3c0.8,0.3,0.1,1.8,0.4,2.7
	c0.1,0.4,0,1,0.7,0.9c0.8-0.2,0.7-0.8,0.3-1.2c-0.3-0.4-0.5-1-0.4-1.5c0-0.6,0.4-1.2,1-1.4c0.6-0.2,1.2-0.2,1.8,0.2
	c0.6,0.5,0.8,1.6,0.4,1.8c-1.7,0.9,0.7,3.8-2.1,3.9c-0.6,0-1.5-0.3-1.5,0.8c0,0.7-0.3,1.6,0.3,1.9c0.8,0.5,1.7,0.3,2.3-0.5
	c0.5-0.7,1.5-0.9,2.3-0.4c0.1,0,0.1,0.1,0.2,0.2c0.6,0.4,0.8,1.2,0.4,1.9c-0.4,0.9-1.4,1.3-2.3,1c-1.3-0.3-2.6-1-3.4,0.9
	c-0.2,0.5-1,0.2-1.5,0.2C34.7,194.3,33.2,194.3,31.5,194.3z M36.4,188.3c0-4.1,0-4.1-4-4.2c-4.3,0-4.3,0-4.3,4.3c0,4,0,4,4.1,4
	S36.3,192.5,36.4,188.3L36.4,188.3z M40.1,184.7c0.5,0.1,1-0.3,1.1-0.9c0,0,0,0,0,0c0-0.6-0.4-1-1-1c-0.5-0.1-0.9,0.3-1,0.8
	C39.1,184.2,39.5,184.6,40.1,184.7L40.1,184.7z M34.7,197.5c-0.6,0.1-1,0.4-1,1c0,0.5,0.4,0.8,0.9,0.9c0.5,0.1,1-0.3,1.1-0.8
	c0,0,0-0.1,0-0.1C35.7,197.9,35.2,197.6,34.7,197.5L34.7,197.5z M35.7,179.7c0.5-0.1,1-0.4,1-1c0-0.5-0.5-0.9-1-0.9
	c-0.1,0-0.1,0-0.2,0c-0.5,0-0.8,0.4-0.9,0.9C34.6,179.3,35,179.6,35.7,179.7L35.7,179.7z M25.1,192.1c-0.2-0.6-0.5-1-1.1-0.9
	c-0.5,0-0.9,0.4-0.9,0.9c0,0,0,0.1,0,0.1c0.1,0.5,0.5,0.8,1,0.8C24.7,193.1,25.1,192.6,25.1,192.1z M21.9,184.3
	c-0.5,0-0.9,0.4-0.9,0.9c-0.1,0.4,0.2,0.9,0.6,0.9c0.1,0,0.2,0,0.3,0c0.5,0,0.8-0.4,0.9-0.8C22.9,184.6,22.5,184.3,21.9,184.3
	L21.9,184.3z M28.1,180.1c0.5-0.1,0.8-0.4,0.8-0.9c0-0.5-0.3-0.9-0.8-0.9c-0.1,0-0.2,0-0.2,0c-0.5,0-0.9,0.4-0.9,1s0.4,0.9,1,0.9
	C28.1,180.1,28.1,180.1,28.1,180.1L28.1,180.1z M42,192.4c0.5-0.1,0.8-0.5,0.8-1c0.1-0.4-0.2-0.8-0.7-0.9c-0.1,0-0.1,0-0.2,0
	c-0.5-0.1-0.9,0.3-1,0.8c0,0.1,0,0.2,0,0.2C41,192.1,41.5,192.5,42,192.4L42,192.4z"/>
<path class="st7" d="M36.3,188.3c0,4.2,0,4.2-4.2,4.2s-4.1,0-4.1-4c0-4.4,0-4.4,4.3-4.3C36.3,184.2,36.3,184.2,36.3,188.3z
	 M29,187.9c-0.1,0.6,2.5,3.5,3,3.4c0.8-0.2,1.2-1.3,2.3-0.8c0.3-0.7,0.6-1.5,0.9-2.2c-0.2-1.5-1.3-2.8-2.8-3.1
	c-0.7-0.2-1.4,1.2-2.5,0.7C29.8,186.7,30.2,187.7,29,187.9z"/>
<path class="st8" d="M40.1,184.7c-0.5-0.1-0.9-0.5-0.8-1.1c0.1-0.5,0.5-0.8,1-0.8c0.6,0,1,0.4,1,1C41.2,184.4,40.7,184.8,40.1,184.7
	C40.1,184.7,40.1,184.7,40.1,184.7z"/>
<path class="st8" d="M34.7,197.5c0.5,0.1,1,0.4,1,1c0,0.5-0.5,0.9-1,0.9c0,0-0.1,0-0.1,0c-0.5,0-0.8-0.4-0.9-0.9
	C33.7,197.9,34.1,197.6,34.7,197.5z"/>
<path class="st8" d="M35.6,179.7c-0.6-0.1-1-0.4-1-1c0-0.5,0.4-0.8,0.9-0.9c0.5-0.1,1,0.3,1.1,0.8c0,0,0,0.1,0,0.1
	C36.7,179.3,36.2,179.6,35.6,179.7z"/>
<path class="st9" d="M25.1,192.1c0,0.6-0.4,1-1,1c-0.5,0-0.9-0.3-1-0.8c-0.1-0.5,0.3-1,0.8-1.1c0,0,0.1,0,0.1,0
	C24.6,191.1,25,191.5,25.1,192.1z"/>
<path class="st10" d="M21.9,184.3c0.5,0.1,1,0.4,1,1c0,0.5-0.4,0.8-0.9,0.8c-0.4,0.1-0.9-0.2-0.9-0.6c0-0.1,0-0.2,0-0.3
	C21,184.7,21.4,184.3,21.9,184.3C21.9,184.3,21.9,184.3,21.9,184.3z"/>
<path class="st11" d="M28.1,180.1c-0.5,0.1-0.9-0.3-1-0.8c-0.1-0.5,0.3-0.9,0.8-1s0.9,0.3,1,0.8c0,0,0,0.1,0,0.1
	C29,179.8,28.6,180,28.1,180.1z"/>
<path class="st12" d="M42,192.4c-0.5,0-0.9-0.3-1-0.8c-0.1-0.5,0.2-0.9,0.7-1c0.1,0,0.2,0,0.2,0c0.4,0,0.8,0.3,0.8,0.7
	c0,0.1,0,0.1,0,0.2C42.8,192,42.4,192.4,42,192.4z"/>
<path class="st13" d="M29,187.9c1.2-0.3,0.8-1.3,0.9-2.1c1,0.5,1.7-0.8,2.5-0.7c1.5,0.3,2.7,1.6,2.8,3.1c-0.2,0.8-0.5,1.5-0.9,2.2
	c-1.1-0.5-1.5,0.6-2.3,0.8C31.5,191.5,29,188.5,29,187.9z M32.3,189.8c0.8-0.1,1.5-0.8,1.5-1.6c-0.1-0.9-0.9-1.6-1.8-1.5
	c-0.8,0.1-1.5,0.7-1.5,1.5c0,0.9,0.8,1.7,1.7,1.7C32.2,189.8,32.3,189.8,32.3,189.8L32.3,189.8z"/>
<path class="st14" d="M32.3,189.8c-0.9,0.1-1.8-0.6-1.8-1.5c0,0,0-0.1,0-0.1c0.1-0.9,0.9-1.6,1.8-1.5c0.8,0.1,1.5,0.7,1.5,1.5
	C33.8,189,33.2,189.8,32.3,189.8z"/>
</svg>
