<svg id="Layer_1" data-name="Layer 1" xmlns="http://www.w3.org/2000/svg" viewBox="0 0 895.35 154.4"><defs><style>.cls-1{fill:#00bcd5;}.cls-2{fill:#3a3a3a;}</style></defs><title>logo_black_normal</title><path class="cls-1" d="M897.67,165.8c-.79,1.8-1.4,3.7-2.29,5.5-5.5,11-14.5,16.6-26.8,16.6q-143,0-285.91-.1c-9,0-16.29-4.4-21.79-11.5a26.69,26.69,0,0,1-5.71-15.1c-.09-2.3-.29-4.7-.29-7,0-30.1-.1-60.3,0-90.5.09-14.8,8.4-25.8,23.2-29.7.7-.2,1.59.4,2.09-.5h293.1a7.54,7.54,0,0,0,2.9.9,28.8,28.8,0,0,1,15.5,9.8,36.18,36.18,0,0,1,6,11.8ZM726.47,39.9H581.88a10.51,10.51,0,0,0-2.5.2c-4.91,1.3-9.3,3.5-12.6,7.5-3.1,3.8-5.3,8.1-5.3,13.1q-.15,50,0,99.9c0,5.8,2.6,10.6,6.5,14.6,4.7,4.7,10.7,6.6,17.2,6.6h282.7a24.83,24.83,0,0,0,9.7-1.7c9.6-4,14.5-11.8,14.5-21.8.1-31.6,0-63.2,0-94.9a23.32,23.32,0,0,0-2.9-11.9c-4.2-7.4-10.4-11.6-19-11.6Z" transform="translate(-2.33 -33.5)"/><path class="cls-2" d="M67.87,88.6c-2-.3-4.4.4-6.8-.4a2.58,2.58,0,0,1-1.8-2.2c-1.5-8-5.5-13.3-14.6-14.8a20.11,20.11,0,0,0-17.5,5.1c-3.7,3.4-4.5,7.6-4,12.4.8,7.2,6.4,9.6,11.8,11.8,7.8,3.2,16,5.5,24,8A32,32,0,0,1,78.07,124a23.39,23.39,0,0,1,2.5,9,71.48,71.48,0,0,1,.41,8.2c-.31,7.4-2.1,14.1-7.2,20-5.5,6.4-11.9,11-20.2,12.4a78.2,78.2,0,0,1-18.7.8,30.44,30.44,0,0,1-17.7-7.1c-7.5-6-13-13.5-14.7-23.2a12.75,12.75,0,0,1,0-3.9c.2-2.2,1.9-3.3,5.1-2.6a49.68,49.68,0,0,0,7.7.4c3.2.1,4.2.6,4.6,3.6,1.1,9.1,6.8,13.6,15.1,15.8a29,29,0,0,0,18.4-1c5.4-2,8.5-6,10-11.5A16.51,16.51,0,0,0,57,126.5c-3.6-2.6-7.8-4-11.91-5.5-7.4-2.7-15-4.8-22-8.3-6.4-3.2-11.9-7.6-14.9-14.3a28.28,28.28,0,0,1-2.1-15.2c.5-3.9.9-7.8,2.6-11.3,4-8.4,10.9-13.3,19.61-15.7,6.5-1.8,13.2-1.7,20-1a30.29,30.29,0,0,1,19.29,9.4c4.6,4.6,6.91,10.5,8.41,16.7.3,1.1.59,2.1.8,3.2.6,2.7-.6,4.3-3.3,4.3A51.76,51.76,0,0,0,67.87,88.6Z" transform="translate(-2.33 -33.5)"/><path class="cls-2" d="M466.78,114.6V58.8c0-3.1.1-3.2,3.29-3.2h11c2.6,0,3.21.6,3.21,3.2V92.1c0,.7-.5,1.6.5,2a2.42,2.42,0,0,0,2.29-.6c8-6,17-6.3,26.4-4.5,10.91,2.1,18.3,8.9,23.7,18.3,2.1,3.8,2.8,7.9,3.21,12.2.59,7,0,14,.5,21,.7,10.2.09,20.5.4,30.7.1,2.3-1,2.9-3,2.9H527c-2.7,0-3.3-.6-3.3-3.4,0-13.9.2-27.7-.1-41.6-.1-4.1-.1-8.4-1.7-12.4-2.6-6.8-7.4-10.4-14.5-11.6a18.86,18.86,0,0,0-14.1,2.7,17.49,17.49,0,0,0-8.2,13.5c-1.1,13.5-.7,27.1-1,40.7-.1,3.2-.4,6.4-.3,9.5a2.18,2.18,0,0,1-2.5,2.5c-4.1.1-8.1.1-12.2,0-1.9,0-2.5-1.1-2.4-3C466.78,152.3,466.78,133.4,466.78,114.6Z" transform="translate(-2.33 -33.5)"/><path class="cls-2" d="M228.28,130.5c.1-3.5-.4-7.5.6-11.5a40.31,40.31,0,0,1,7.3-13.7A47.39,47.39,0,0,1,254,91.1a34.68,34.68,0,0,1,19.3-2.6c3,.4,6.1.2,9.2.9a40.43,40.43,0,0,1,14.7,7.6c5.3,4,9,9.2,12.1,14.9a40.84,40.84,0,0,1,4.7,17c0,.7.2,1.3.2,2,.7,13.3.5,26.6.5,39.8,0,2.7-.4,3.2-3.1,3.2h-11.3c-2.6,0-3.1-.5-3.1-3,0-1.5.1-2.9,0-4.4,0-.9.6-1.9-.8-2.5s-1.6.7-2.1,1.2a35.34,35.34,0,0,1-13.9,8.4,15.23,15.23,0,0,1-4.2.6c-5.6.1-11.2.6-16.8-.8a38.56,38.56,0,0,1-16.1-8.8,48.12,48.12,0,0,1-13.7-19.3c-1.4-3.7-1.5-7.5-1.4-11.4A29.34,29.34,0,0,0,228.28,130.5ZM271.17,158c13,.9,25.61-11.2,25.61-24.9.1-17.7-11-27.8-25.11-28.3-16.7-.6-26.89,11.5-26.8,26.6S255.07,158,271.17,158Z" transform="translate(-2.33 -33.5)"/><path class="cls-2" d="M131.17,174.4a31.28,31.28,0,0,1-18.5-3.7A47.83,47.83,0,0,1,96,155.8c-3.1-4.5-5.91-9.1-6.6-14.7a74.24,74.24,0,0,1-.5-16.4,31.22,31.22,0,0,1,3.9-12.7c6.1-11.3,15-19.3,27.5-22.8a43.87,43.87,0,0,1,21.3-.1c13.3,3,22.5,11.3,29,22.9,1.2,2.1.2,3.6-2.3,3.6-4.5-.1-9,.3-13.4-.4a5.55,5.55,0,0,1-3.2-1.9,28,28,0,0,0-13-8c-10-2.6-23.1,1.9-28.6,10.2A25.77,25.77,0,0,0,106,129c-.3,6.4.7,12.5,4.4,18a24.12,24.12,0,0,0,16.5,10.5c7.3,1.3,14,.2,20.1-4.2a12.74,12.74,0,0,0,2.7-2.5c2.1-2.5,4.9-3.3,8-3.4,3.6-.1,7.2,0,10.8,0,2.5,0,3.4,1.5,2.2,3.7-6.3,11.3-15.4,19.3-27.9,22.7A28.4,28.4,0,0,1,131.17,174.4Z" transform="translate(-2.33 -33.5)"/><path class="cls-2" d="M374.88,130.8a33.06,33.06,0,0,1,2.7-16.1,41.42,41.42,0,0,1,6.5-10.6c6.59-7.6,14.49-13.5,24.59-15.3A47.42,47.42,0,0,1,434,91a38,38,0,0,1,10.1,6,42.85,42.85,0,0,1,12.4,14.7c1.4,2.7.6,4-2.5,4-4.3-.1-8.5.4-12.7-.5a6.92,6.92,0,0,1-3.7-2.1c-4.3-4.4-9.2-7.9-15.8-8-5.3-.1-10.5-.1-15.5,2.1a22.06,22.06,0,0,0-12.4,13c-3.5,9.8-2.9,19.2,3.4,27.9a23.11,23.11,0,0,0,15.1,9.3c9,1.7,17.2-.1,23.8-6.9,2.3-2.4,5-3,7.9-3.1,3.4-.1,6.7-.1,10.1,0,2.9,0,3.7,1.4,2.4,3.9a48.35,48.35,0,0,1-18.3,18.7c-6,3.5-12.3,4.7-19.1,4.6-5.3-.1-10.7.2-15.8-1.8a42.3,42.3,0,0,1-12.3-7.2c-6.7-5.9-12.29-12.6-15-21.3C374.67,140,374.78,135.6,374.88,130.8Z" transform="translate(-2.33 -33.5)"/><path class="cls-2" d="M333.07,74.4V62c0-2.6.6-3.3,3.1-3.3h11.3c2.6,0,3.1.5,3.1,3v25c0,1.9.6,2.4,2.4,2.3,4.1-.1,8.3,0,12.4,0,2.8,0,3.2.5,3.2,3.1,0,3.3-.1,6.6,0,9.9.1,2.8-.4,3.6-3.7,3.6-4,0-8,.1-11.9,0-1.9-.1-2.4.6-2.3,2.4.11,4-.29,8.1.11,12.1.5,5-.11,10.1.5,15,.39,3.3,0,6.6,1.2,9.8A17,17,0,0,0,364,156.1a17.42,17.42,0,0,1,2.2.5c1.2.5,2.1,1,2.1,2.7-.2,4.1.7,8.2.4,12.3-.1,1.9-.9,2.4-2.9,2.2a43.06,43.06,0,0,1-10.6-2.5,28.57,28.57,0,0,1-15.5-13.1,43.87,43.87,0,0,1-5.6-18.4c-.9-10.5-.9-21-.8-31.5,0-2.2-.6-3-2.8-2.8s-4.4,0-6.7,0c-1.9,0-3-.9-3-2.9V91.8c0-2,1-2.9,2.9-2.9,2.3,0,4.6-.1,6.9,0,2,.1,2.7-.4,2.6-2.5C333,82.5,333.07,78.5,333.07,74.4Z" transform="translate(-2.33 -33.5)"/><path class="cls-2" d="M180.48,159.5c0-3-.2-6,0-9,.5-6.7.1-13.4.5-20.1s.3-13.4,2.69-19.8a31.61,31.61,0,0,1,14.5-17,34.2,34.2,0,0,1,16.9-4.5c2.7,0,3.1.4,3.1,3.2v9.9c0,2.5-.89,3.4-3.3,3.5-6.39.1-12.39,4.8-14.6,11.3a35.93,35.93,0,0,0-1.4,8.6c-.7,6.9.11,13.9-.5,20.8-.7,8.2-.1,16.3-.39,24.5-.11,2.4-.9,3.3-3.2,3.3h-11c-2.8,0-3.2-.4-3.2-3.1Z" transform="translate(-2.33 -33.5)"/><path class="cls-2" d="M714.77,132.3h-32.1c-2.2,0-2.9.7-2.29,2.8,2.4,8.2,9.7,16.1,19.59,17.5,7.91,1.1,15.1-.1,21.6-4.7a19.63,19.63,0,0,1,12.4-3.6c3,.1,6,0,9,0,1.1,0,2,.1,2.5,1.1a3,3,0,0,1-.5,3,49.06,49.06,0,0,1-7.4,8.4,73.6,73.6,0,0,1-11.8,9,28.58,28.58,0,0,1-13.9,4.2c-3.8.2-7.7,0-11.5,0-6.6,0-12.4-2.5-17.8-6-7.5-4.9-13.8-11-17.6-19.3a43,43,0,0,1-3.5-13.5,66.2,66.2,0,0,1-.4-7.7,41.48,41.48,0,0,1,10.3-27,52.47,52.47,0,0,1,15.9-12.6,33.35,33.35,0,0,1,13.1-3.3c7.2-.5,14.5-.2,21.3,2.7a46.12,46.12,0,0,1,12.8,7.6,45,45,0,0,1,13.9,21.2c2,6,1.7,12.2,1.6,18.4,0,1.9-1.6,1.9-3,1.9h-17.5Zm-34.6-15.5c6.3.3,12.21.7,18.1.8,7.4.1,14.8,0,22.3,0h7.6c2.6,0,3-.6,2.1-3.1-1.5-4.3-4.4-7.5-7.7-10.5-5.8-5.3-12.7-7.6-20.3-6.5C691.17,99.1,684,105.8,680.17,116.8Z" transform="translate(-2.33 -33.5)"/><path class="cls-2" d="M636.67,143.8c0-6.8.1-13.6,0-20.4-.09-4.9-.2-9.8-2.29-14.3-3.21-6.9-7.21-10.2-14.8-11.3a21.65,21.65,0,0,0-11,1c-6.6,2.5-10.41,7.5-11.7,14.1-1.5,7.9-.71,15.9-1.1,23.9-.5,10-.2,20-.4,30a2.49,2.49,0,0,1-2.21,2.8h-13.5a1.92,1.92,0,0,1-2.2-2.2c0-14.2-.2-28.3.1-42.5.2-7.1.8-14.4,3.2-21.3a31.84,31.84,0,0,1,9.8-14.6,47.25,47.25,0,0,1,12-7.2,20.68,20.68,0,0,1,7-1.3c7.5-.3,15.1-.2,22.4,2.3,7.5,2.6,13,7.9,17.2,14.4,2.8,4.4,3.91,9.3,4.5,14.3,1.91,17.4.6,34.9.91,52.4.09,6.2.5,5.7-5.6,5.7h-9.2c-2.6,0-3.1-.5-3.1-3Z" transform="translate(-2.33 -33.5)"/><path class="cls-2" d="M789,170.4a37.09,37.09,0,0,1-18.2-3.8c-8.5-4-15.9-11.8-16.1-22,0-1.9.71-2.8,2.71-2.7,3.2.1,6.4,0,9.7,0a5.41,5.41,0,0,1,5.5,3.5c2.5,5.7,7.2,7.7,13,8.5a28.1,28.1,0,0,0,13.2-1.4,9.92,9.92,0,0,0,6.5-9.5c0-4.2-2-6.8-6.4-8.4-8.1-3-16.5-4.9-24.71-7.3-7.59-2.3-14.29-5.8-16.79-14.1-3-9.8-1-18.3,6.59-25.1,4.5-4,10.1-6,15.91-7.1,9.79-1.7,19.4-.8,28.2,4.1,6.59,3.7,10.3,9.7,12.3,16.8.9,3.2-.1,4.5-3.3,4.7a38.86,38.86,0,0,1-11.3-.5,5.08,5.08,0,0,1-3.2-2.7c-2.91-4.9-7.5-6.6-12.8-6.9-4.3-.2-8.4.3-12,2.8s-5,6.9-2.7,10.4c1.4,2.2,4,3.1,6.3,3.8,7.7,2.4,15.5,4.5,23.2,7,6.7,2.2,12.5,5.8,16.3,12a12.39,12.39,0,0,1,1.7,5c.7,5.6,1,11.3-1.1,16.6-1.9,4.9-5.8,8.2-10.1,10.9C804.88,169.1,797.47,170.6,789,170.4Z" transform="translate(-2.33 -33.5)"/><path class="cls-2" d="M838.38,66.2V53.1c0-1.9.7-2.6,2.59-2.6,4.1.1,8.3.1,12.41,0,2.5-.1,3.5.3,3.4,3.6,0,8.4.1,16.7-.1,25,0,2.2.7,2.8,2.7,2.7q6.3-.15,12.6,0c2.6,0,3,.5,3,3,0,3.8-.1,7.5,0,11.3,0,1.9-.7,2.8-2.7,2.7-4.5-.1-9,0-13.5,0-2,0-2.9.8-2.6,2.7.8,7.1,0,14.2.6,21.3.4,5.3.1,10.7,1.2,16,1.2,5.8,6.3,11.5,12.3,12.9a11,11,0,0,1,2.6.6c.79.3,1.59.6,1.7,1.8.3,4.6.5,9.1.5,13.7,0,1.8-.91,2.5-2.6,2.3-8.9-1.1-17.1-3.6-23.4-10.5-4.7-5.2-7.41-11.4-9-18.2a75.82,75.82,0,0,1-1.41-12.5c-.7-9.3-.5-18.6-.4-28,0-1.8-1-2-2.3-2-2.7,0-5.4-.1-8,0a2.09,2.09,0,0,1-2.5-1.7,1.83,1.83,0,0,1,0-.7c-.09-4-.09-8.1,0-12.2a2.44,2.44,0,0,1,2.3-2.5h.4c2.5,0,4.91-.2,7.3,0s3-.7,2.91-3C838.27,74.6,838.38,70.4,838.38,66.2Z" transform="translate(-2.33 -33.5)"/></svg>